Fly_normalized_Motion_pl15
version=1
nRows=14
nColumns=43
inDegrees=yes
endheader
time		pelvis_tilt		pelvis_list		pelvis_rotation		pelvis_tx		pelvis_ty		pelvis_tz		hip_flexion_r		hip_adduction_r		hip_rotation_r		knee_angle_r		ankle_angle_r		subtalar_angle_r		mtp_angle_r		hip_flexion_l		hip_adduction_l		hip_rotation_l		knee_angle_l		ankle_angle_l		subtalar_angle_l		mtp_angle_l		lumbar_extension		lumbar_bending		lumbar_rotation		neck_flexion		neck_lateral_bending		neck_rotation		arm_flex_r		arm_add_r		arm_rot_r		elbow_flex_r		pro_sup_r		wrist_flex_r		wrist_dev_r		hand_finger_flex_r		arm_flex_l		arm_add_l		arm_rot_l		elbow_flex_l		pro_sup_l		wrist_flex_l		wrist_dev_l		hand_finger_flex_l		
0.530000		1.362366		-18.900164		91.911874		0.053816		1.925954		1.477249		47.924287		5.453740		5.189336		-101.219661		-4.625146		4.286842		23.900827		59.536472		-10.663462		-3.109439		-99.175127		-6.195581		-12.339431		24.608102		-33.637172		0.121571		-1.768621		12.159145		-0.048962		3.246697		101.852578		-6.457474		13.548941		74.079048		108.644736		0.166355		8.771267		34.574322		101.251357		-19.785801		21.312813		76.840813		94.879514		-7.124827		3.936172		22.819141		
0.534343		1.480370		-18.648001		92.025373		0.053097		1.926926		1.470160		47.908382		5.461015		4.882113		-100.426174		-4.954026		1.945311		23.317395		59.554187		-10.500667		-2.893308		-98.200677		-6.169613		-11.529865		24.721708		-33.926593		0.326597		-1.729278		12.267601		-0.228756		3.208061		101.723463		-6.044633		13.391135		73.377576		108.287486		0.320311		8.790337		34.644180		100.987633		-19.423994		21.101042		76.328378		94.821164		-7.384120		4.070200		22.444029		
0.538687		1.593259		-18.469949		92.095271		0.052470		1.927629		1.463199		48.090601		5.471434		4.593071		-99.619914		-5.790946		-0.664896		22.561147		59.664225		-10.360838		-2.670715		-97.232264		-6.018323		-10.522036		24.876609		-34.153411		0.492084		-1.649044		12.383693		-0.365726		3.179940		101.502044		-5.677969		13.275735		72.742020		108.159622		0.447647		8.811818		34.735332		100.729424		-19.134139		20.995145		75.866309		94.893592		-7.530040		4.300423		22.137409		
0.543030		1.643026		-18.365774		92.121205		0.051805		1.928027		1.456334		48.408744		5.405612		4.372172		-98.823084		-6.628458		-3.301101		21.839290		59.838566		-10.197430		-2.521187		-96.232879		-5.798062		-9.412266		25.059285		-34.306468		0.594182		-1.569111		12.490741		-0.504360		3.144694		101.200356		-5.383452		13.249264		72.159140		108.251279		0.518498		8.825995		34.807757		100.414312		-18.877712		20.914652		75.442717		95.105461		-7.609981		4.597967		21.923490		
0.547374		1.662885		-18.299769		92.109651		0.051173		1.928186		1.449517		48.806600		5.287762		4.199578		-98.028189		-7.214109		-5.672201		21.222823		60.028413		-10.040958		-2.416560		-95.230208		-5.485171		-8.352110		25.263107		-34.425076		0.649652		-1.491029		12.595766		-0.622848		3.116450		100.837533		-5.199198		13.401650		71.628927		108.479865		0.526036		8.820896		34.796548		100.073995		-18.700764		20.924542		75.066084		95.456203		-7.603802		4.933315		21.804623		
0.551717		1.657248		-18.224266		92.065242		0.050552		1.928207		1.442659		49.192756		5.136044		4.096622		-97.245196		-7.413424		-7.360381		20.772383		60.184459		-9.882506		-2.371913		-94.201398		-5.207087		-7.551866		25.436996		-34.552181		0.667831		-1.418204		12.713287		-0.707047		3.101842		100.402001		-5.112220		13.697330		71.131795		108.687607		0.488819		8.825336		34.678698		99.678338		-18.609399		21.019132		74.705659		95.812245		-7.544386		5.219391		21.768766		
0.556061		1.625392		-18.133619		92.007379		0.049946		1.928076		1.435843		49.580375		4.958662		3.992984		-96.479777		-7.450630		-8.908196		20.302943		60.311227		-9.720118		-2.359389		-93.150062		-4.932987		-6.813290		25.611815		-34.703451		0.663181		-1.348653		12.829932		-0.783790		3.092086		99.917309		-5.059103		14.057563		70.634858		108.867745		0.431746		8.844146		34.488679		99.248173		-18.548210		21.148909		74.344563		96.195867		-7.450540		5.486502		21.774198		
0.560404		1.575501		-18.026500		91.928288		0.049393		1.927775		1.429060		49.964233		4.769895		3.869572		-95.731578		-7.303994		-10.241558		19.858664		60.411677		-9.563866		-2.378219		-92.081155		-4.700487		-6.193952		25.764902		-34.876255		0.628572		-1.268543		12.957550		-0.864422		3.092428		99.380634		-5.035145		14.444594		70.129346		109.008669		0.381965		8.894552		34.278218		98.791139		-18.506937		21.327295		73.968455		96.556593		-7.335269		5.720171		21.811108		
0.564747		1.503898		-17.910644		91.840775		0.048862		1.927298		1.422333		50.332072		4.572920		3.756701		-94.972173		-6.870627		-11.287015		19.529024		60.498587		-9.409840		-2.449526		-90.985770		-4.577797		-5.780478		25.851395		-35.065863		0.570417		-1.165658		13.085606		-0.972444		3.104110		98.801630		-5.039881		14.811754		69.612221		109.101615		0.382753		9.009901		34.139936		98.323140		-18.478873		21.585618		73.559118		96.811075		-7.218178		5.897120		21.868929		
0.569091		1.403712		-17.761482		91.809885		0.048612		1.926903		1.415597		50.688070		4.403036		3.526061		-94.097334		-7.196213		-13.438263		17.950211		60.501582		-9.257219		-2.519918		-89.801621		-4.176688		-4.835167		26.123628		-35.321716		0.452649		-1.168569		13.130465		-0.947950		3.029590		98.055372		-5.024461		15.042110		69.227967		109.214432		0.209157		9.228239		33.768773		97.804203		-18.448866		21.750384		73.270911		97.521160		-6.900879		6.088490		22.135759		
0.573434		1.389350		-17.612854		91.730216		0.048465		1.926087		1.408584		51.035617		4.282832		3.260890		-93.237015		-6.970089		-14.726866		16.536922		60.533890		-9.234388		-2.590545		-88.671312		-4.175619		-4.468565		26.319526		-35.520541		0.384313		-1.015148		13.136188		-1.038466		2.976429		97.180444		-5.100650		15.274010		68.978245		109.316620		0.289413		9.514627		33.734397		97.215112		-18.486941		22.065280		72.935134		97.941384		-6.577259		6.235094		22.431172		
0.577778		1.409784		-17.455171		91.652326		0.048269		1.925121		1.401785		51.452896		4.228484		3.076471		-92.331915		-7.198655		-15.541737		15.198805		60.575732		-9.184129		-2.575682		-87.543705		-4.137281		-4.221752		26.493408		-35.753800		0.340336		-0.885579		13.310685		-0.959083		2.902451		96.352062		-5.128781		15.489361		68.588646		109.431505		0.341801		9.792313		33.719791		96.605001		-18.525008		22.305275		72.554838		98.279717		-6.328569		6.367349		22.690025		
0.582121		1.443154		-17.338687		91.589805		0.048062		1.924112		1.395103		51.862163		4.154014		2.923653		-91.309033		-7.041462		-15.751682		14.922194		60.619383		-9.209361		-2.678938		-86.318354		-4.193569		-4.168420		26.526176		-35.981305		0.326113		-0.733148		13.424273		-1.011793		2.924166		95.505913		-5.298280		15.830279		68.266610		109.493288		0.443106		9.903493		33.758346		95.970113		-18.669549		22.643881		72.299742		98.372356		-6.190641		6.487342		22.785076		
0.586465		1.516868		-17.292438		91.443485		0.048120		1.922560		1.388167		52.375975		4.213275		2.680523		-90.337492		-6.758294		-16.418928		11.007877		60.753239		-9.321821		-2.728995		-85.177469		-4.398945		-4.220536		27.088720		-36.062324		0.264385		-0.501063		13.402083		-0.986599		2.949846		94.509215		-5.599210		16.356587		68.106741		109.505301		0.364375		10.197476		33.768846		95.141970		-18.687195		22.689605		72.053055		99.257019		-5.909261		6.744508		23.812006		
